<svg width="20" height="20" viewBox="0 0 20 20" fill="none" xmlns="http://www.w3.org/2000/svg">
<path d="M14.1667 6.66663H13.3334V5.09163C13.3334 4.20758 12.9822 3.35973 12.3571 2.73461C11.7319 2.10949 10.8841 1.7583 10 1.7583C9.11599 1.7583 8.26814 2.10949 7.64302 2.73461C7.0179 3.35973 6.66671 4.20758 6.66671 5.09163V6.66663H5.83337C5.17033 6.66663 4.53445 6.93003 4.06561 7.39887C3.59677 7.86771 3.33337 8.50359 3.33337 9.16663V15.8333C3.33337 16.4963 3.59677 17.1322 4.06561 17.6011C4.53445 18.0699 5.17033 18.3333 5.83337 18.3333H14.1667C14.8297 18.3333 15.4656 18.0699 15.9345 17.6011C16.4033 17.1322 16.6667 16.4963 16.6667 15.8333V9.16663C16.6667 8.50359 16.4033 7.86771 15.9345 7.39887C15.4656 6.93003 14.8297 6.66663 14.1667 6.66663ZM8.33337 5.09163C8.32217 4.63771 8.49125 4.19784 8.80361 3.8683C9.11597 3.53876 9.54617 3.34639 10 3.3333C10.4539 3.34639 10.8841 3.53876 11.1965 3.8683C11.5088 4.19784 11.6779 4.63771 11.6667 5.09163V6.66663H8.33337V5.09163ZM15 15.8333C15 16.0543 14.9122 16.2663 14.756 16.4226C14.5997 16.5788 14.3877 16.6666 14.1667 16.6666H5.83337C5.61236 16.6666 5.4004 16.5788 5.24412 16.4226C5.08784 16.2663 5.00004 16.0543 5.00004 15.8333V9.16663C5.00004 8.94562 5.08784 8.73366 5.24412 8.57738C5.4004 8.4211 5.61236 8.3333 5.83337 8.3333H14.1667C14.3877 8.3333 14.5997 8.4211 14.756 8.57738C14.9122 8.73366 15 8.94562 15 9.16663V15.8333Z" fill="#121212" fill-opacity="0.6"/>
<path d="M10 10C9.50555 10 9.0222 10.1466 8.61108 10.4213C8.19995 10.696 7.87952 11.0865 7.6903 11.5433C7.50108 12.0001 7.45157 12.5028 7.54804 12.9877C7.6445 13.4727 7.8826 13.9181 8.23223 14.2678C8.58187 14.6174 9.02732 14.8555 9.51228 14.952C9.99723 15.0484 10.4999 14.9989 10.9567 14.8097C11.4135 14.6205 11.804 14.3 12.0787 13.8889C12.3534 13.4778 12.5 12.9945 12.5 12.5C12.5 11.837 12.2366 11.2011 11.7678 10.7322C11.2989 10.2634 10.663 10 10 10ZM10 13.3333C9.83518 13.3333 9.67407 13.2845 9.53703 13.1929C9.39999 13.1013 9.29317 12.9712 9.2301 12.8189C9.16703 12.6666 9.15053 12.4991 9.18268 12.3374C9.21483 12.1758 9.2942 12.0273 9.41075 11.9107C9.52729 11.7942 9.67578 11.7148 9.83743 11.6827C9.99908 11.6505 10.1666 11.667 10.3189 11.7301C10.4712 11.7932 10.6013 11.9 10.6929 12.037C10.7845 12.1741 10.8333 12.3352 10.8333 12.5C10.8333 12.721 10.7455 12.933 10.5893 13.0893C10.433 13.2455 10.221 13.3333 10 13.3333Z" fill="#121212" fill-opacity="0.6"/>
</svg>
