<svg width="20" height="20" viewBox="0 0 20 20" fill="none" xmlns="http://www.w3.org/2000/svg">
<path fill-rule="evenodd" clip-rule="evenodd" d="M8.28628 2.70837H11.7136C13.2451 2.70836 14.4581 2.70835 15.4075 2.83599C16.3845 2.96734 17.1753 3.24411 17.7989 3.86774C18.4226 4.49138 18.6993 5.28217 18.8307 6.25919C18.9583 7.20853 18.9583 8.42156 18.9583 9.95303V10.0471C18.9583 11.5785 18.9583 12.7915 18.8307 13.7409C18.6993 14.7179 18.4226 15.5087 17.7989 16.1323C17.1753 16.756 16.3845 17.0327 15.4075 17.1641C14.4581 17.2917 13.2451 17.2917 11.7136 17.2917H8.28628C6.75482 17.2917 5.54179 17.2917 4.59244 17.1641C3.61542 17.0327 2.82463 16.756 2.201 16.1323C1.57736 15.5087 1.3006 14.7179 1.16924 13.7409C1.0416 12.7915 1.04161 11.5785 1.04163 10.0471V9.95303C1.04161 8.42156 1.0416 7.20853 1.16924 6.25919C1.3006 5.28217 1.57736 4.49138 2.201 3.86774C2.82463 3.24411 3.61542 2.96734 4.59244 2.83599C5.54179 2.70835 6.75481 2.70836 8.28628 2.70837ZM4.759 4.07484C3.92059 4.18756 3.43755 4.39895 3.08488 4.75163C2.7322 5.1043 2.52081 5.58734 2.40809 6.42575C2.29295 7.28214 2.29163 8.41102 2.29163 10C2.29163 11.5891 2.29295 12.7179 2.40809 13.5743C2.52081 14.4127 2.7322 14.8958 3.08488 15.2485C3.43755 15.6011 3.92059 15.8125 4.759 15.9252C5.61539 16.0404 6.74428 16.0417 8.33329 16.0417H11.6666C13.2556 16.0417 14.3845 16.0404 15.2409 15.9252C16.0793 15.8125 16.5624 15.6011 16.915 15.2485C17.2677 14.8958 17.4791 14.4127 17.5918 13.5743C17.707 12.7179 17.7083 11.5891 17.7083 10C17.7083 8.41102 17.707 7.28214 17.5918 6.42575C17.4791 5.58734 17.2677 5.1043 16.915 4.75163C16.5624 4.39895 16.0793 4.18756 15.2409 4.07484C14.3845 3.9597 13.2556 3.95837 11.6666 3.95837H8.33329C6.74428 3.95837 5.61539 3.9597 4.759 4.07484ZM4.51982 6.26659C4.7408 6.00142 5.1349 5.96559 5.40007 6.18657L7.19915 7.6858C7.97662 8.33369 8.5164 8.78205 8.97211 9.07515C9.41324 9.35887 9.7124 9.4541 9.99996 9.4541C10.2875 9.4541 10.5867 9.35887 11.0278 9.07515C11.4835 8.78205 12.0233 8.33369 12.8008 7.6858L14.5998 6.18657C14.865 5.96559 15.2591 6.00142 15.4801 6.26659C15.7011 6.53177 15.6652 6.92587 15.4001 7.14685L13.5697 8.67219C12.831 9.28773 12.2324 9.78664 11.704 10.1265C11.1536 10.4805 10.6175 10.7041 9.99996 10.7041C9.38239 10.7041 8.84635 10.4805 8.29594 10.1265C7.76756 9.78664 7.16889 9.28774 6.43026 8.67219L4.59984 7.14685C4.33467 6.92587 4.29884 6.53177 4.51982 6.26659Z" fill="#121212" fill-opacity="0.6"/>
</svg>
