<svg width="20" height="20" viewBox="0 0 20 20" fill="none" xmlns="http://www.w3.org/2000/svg">
<path fill-rule="evenodd" clip-rule="evenodd" d="M9.99996 1.04163C7.81383 1.04163 6.04163 2.81383 6.04163 4.99996C6.04163 7.18609 7.81383 8.95829 9.99996 8.95829C12.1861 8.95829 13.9583 7.18609 13.9583 4.99996C13.9583 2.81383 12.1861 1.04163 9.99996 1.04163ZM7.29163 4.99996C7.29163 3.50419 8.50419 2.29163 9.99996 2.29163C11.4957 2.29163 12.7083 3.50419 12.7083 4.99996C12.7083 6.49573 11.4957 7.70829 9.99996 7.70829C8.50419 7.70829 7.29163 6.49573 7.29163 4.99996Z" fill="#121212" fill-opacity="0.6"/>
<path fill-rule="evenodd" clip-rule="evenodd" d="M9.99996 10.2083C8.30051 10.2083 6.73122 10.6006 5.56508 11.267C4.41662 11.9232 3.54163 12.9251 3.54163 14.1666C3.54163 15.4082 4.41662 16.41 5.56508 17.0663C6.73122 17.7327 8.30051 18.125 9.99996 18.125C11.6994 18.125 13.2687 17.7327 14.4348 17.0663C15.5833 16.41 16.4583 15.4082 16.4583 14.1666C16.4583 12.9251 15.5833 11.9232 14.4348 11.267C13.2687 10.6006 11.6994 10.2083 9.99996 10.2083ZM4.79163 14.1666C4.79163 13.5672 5.22246 12.9024 6.18526 12.3523C7.13037 11.8122 8.47774 11.4583 9.99996 11.4583C11.5222 11.4583 12.8696 11.8122 13.8147 12.3523C14.7775 12.9024 15.2083 13.5672 15.2083 14.1666C15.2083 14.766 14.7775 15.4308 13.8147 15.981C12.8696 16.5211 11.5222 16.875 9.99996 16.875C8.47774 16.875 7.13037 16.5211 6.18526 15.981C5.22246 15.4308 4.79163 14.766 4.79163 14.1666Z" fill="#121212" fill-opacity="0.6"/>
</svg>
